<svg width="128" height="128" viewBox="0 0 128 128" fill="none" xmlns="http://www.w3.org/2000/svg" role="img" aria-labelledby="lingshu-title">
  <title id="lingshu-title">灵枢</title>
  <defs>
    <linearGradient id="lingshu-stroke" x1="21" y1="28" x2="110" y2="94" gradientUnits="userSpaceOnUse">
      <stop offset="0" stop-color="#22A8FF"/>
      <stop offset="0.55" stop-color="#2E6BFF"/>
      <stop offset="1" stop-color="#5848F5"/>
    </linearGradient>
  </defs>

  <g>
    <path
      d="M34.4 78.1C22.7 81.2 14.7 79.9 12.7 74.6C9.5 66.1 23.1 52.5 45.2 43.9C67.2 35.3 89.7 35.5 95.1 44.3C100.5 53 86.6 67.5 64.7 76C54.8 79.9 45.2 82.2 37.6 82.7"
      fill="none"
      stroke="url(#lingshu-stroke)"
      stroke-width="6"
      stroke-linecap="round"
      stroke-linejoin="round"
    />
    <path
      d="M36.5 83.5L34.9 105.2L50.4 94.4C59.3 98.2 70.8 97.9 81.2 92.5C99.5 83 106.4 62.1 96.5 46.1C88.1 32.4 69.4 27.6 52.7 33.9C35.8 40.4 26.3 56.8 29.1 71.6"
      fill="none"
      stroke="url(#lingshu-stroke)"
      stroke-width="6"
      stroke-linecap="round"
      stroke-linejoin="round"
    />
    <path
      d="M83.7 32.8C98.6 32.6 108.6 38.1 110.7 46.2C112.2 52.4 108.9 60.1 101.4 67.4"
      fill="none"
      stroke="url(#lingshu-stroke)"
      stroke-width="6"
      stroke-linecap="round"
      stroke-linejoin="round"
    />
    <path
      d="M77.1 31.4C65.2 20.9 43.8 22 31.3 34.5C21.4 44.3 18.6 58.5 24.3 70.4"
      fill="none"
      stroke="url(#lingshu-stroke)"
      stroke-width="6"
      stroke-linecap="round"
      stroke-linejoin="round"
    />
    <circle cx="82.9" cy="31.8" r="8.6" fill="url(#lingshu-stroke)"/>
    <polygon
      points="62 39 69 55 85 62 69 69 62 85 55 69 39 62 55 55"
      fill="#3757FF"
      stroke="#FFFFFF"
      stroke-width="4"
      stroke-linejoin="round"
      paint-order="stroke fill"
    />
  </g>
</svg>
